Coordinates
version=1
nRows=6
nColumns=63
inDegrees=yes

Units are S.I. units (second, meters, Newtons, ...)
If the header above contains a line with 'inDegrees', this indicates whether rotational values are in degrees (yes) or radians (no).

endheader
time	pelvis_tilt	pelvis_list	pelvis_rotation	pelvis_tx	pelvis_ty	pelvis_tz	hip_flexion_r	hip_adduction_r	hip_rotation_r	knee_angle_r	knee_angle_r_beta	ankle_angle_r	subtalar_angle_r	mtp_angle_r	hip_flexion_l	hip_adduction_l	hip_rotation_l	knee_angle_l	knee_angle_l_beta	ankle_angle_l	subtalar_angle_l	mtp_angle_l	L5_S1_Flex_Ext	L5_S1_Lat_Bending	L5_S1_axial_rotation	L4_L5_Flex_Ext	L4_L5_Lat_Bending	L4_L5_axial_rotation	L3_L4_Flex_Ext	L3_L4_Lat_Bending	L3_L4_axial_rotation	L2_L3_Flex_Ext	L2_L3_Lat_Bending	L2_L3_axial_rotation	L1_L2_Flex_Ext	L1_L2_Lat_Bending	L1_L2_axial_rotation	L1_T12_Flex_Ext	L1_T12_Lat_Bending	L1_T12_axial_rotation	Abs_r3	Abs_r2	Abs_r1	Abs_t1	Abs_t2	neck_flexion	neck_bending	neck_rotation	arm_flex_r	arm_add_r	arm_rot_r	elbow_flex_r	pro_sup_r	wrist_flex_r	wrist_dev_r	arm_flex_l	arm_add_l	arm_rot_l	elbow_flex_l	pro_sup_l	wrist_flex_l	wrist_dev_l
0.000000	3.357072	-3.059373	99.364986	0.166597	0.880361	0.578399	-3.561715	-3.799317	-3.014946	0.399022	0.006964	22.855549	2.689119	0.000000	0.365869	-0.787631	7.426593	5.951865	0.103880	23.911072	9.675207	0.000000	0.137716	-0.038109	-2.129506	0.255752	-0.050684	-2.262600	0.226253	-0.092657	-2.262600	0.157395	-0.092657	-1.863317	0.127883	-0.077711	-1.730223	0.078691	-0.059030	-1.597129	0.983691	-0.431092	-11.843671	0.000000	0.000000	25.643433	6.481264	-4.672693	18.504724	-8.442997	48.345516	38.975499	87.996213	2.651125	16.036515	14.939709	-8.569639	39.121713	48.473113	80.584954	-4.184760	13.567021
0.021739	2.741098	-3.018640	98.955745	0.167500	0.881019	0.577564	-3.773929	-4.374653	-3.229474	0.432914	0.007556	22.871477	3.224095	0.000000	0.218652	-0.125083	7.228437	5.854153	0.102174	24.530172	9.518993	0.000000	0.150080	-0.117088	-2.075585	0.278714	-0.155726	-2.205309	0.246566	-0.284687	-2.205309	0.171526	-0.284687	-1.816137	0.139364	-0.238765	-1.686413	0.085756	-0.181369	-1.556689	1.072006	-1.324518	-11.543783	0.000000	0.000000	25.339492	6.956988	-4.414203	18.962784	-7.730457	47.590764	38.118768	86.455794	2.852091	15.462659	14.703349	-8.516768	37.657671	48.959650	81.746593	-4.689115	15.153750
0.043478	2.214653	-2.970396	98.577991	0.168321	0.881600	0.576731	-3.976430	-4.867206	-3.390662	0.457636	0.007987	22.880960	3.726585	0.000000	0.049942	0.438960	7.025948	5.738313	0.100152	24.952270	9.303506	0.000000	0.161652	-0.183299	-2.031452	0.300203	-0.243788	-2.158418	0.265577	-0.445674	-2.158418	0.184752	-0.445674	-1.777521	0.150110	-0.373784	-1.650555	0.092368	-0.283931	-1.523589	1.154661	-2.073520	-11.298329	0.000000	0.000000	25.106693	7.334044	-4.082580	19.287633	-7.116032	46.922865	37.433019	84.760078	2.699220	14.922389	14.481686	-8.479500	36.433184	49.323827	82.456873	-5.069047	16.375273
0.065217	1.771797	-2.916115	98.228682	0.169066	0.882108	0.575905	-4.167776	-5.282405	-3.499306	0.474605	0.008283	22.885113	4.194358	0.000000	-0.136341	0.911239	6.820311	5.608951	0.097895	25.195378	9.031504	0.000000	0.172439	-0.237693	-1.995785	0.320237	-0.316132	-2.120521	0.283300	-0.577928	-2.120521	0.197081	-0.577928	-1.746312	0.160127	-0.484704	-1.621575	0.098532	-0.368187	-1.496839	1.231716	-2.688835	-11.099956	0.000000	0.000000	24.939218	7.622094	-3.688289	19.493833	-6.592655	46.345091	36.899693	82.958192	2.254525	14.422796	14.273408	-8.455976	35.429478	49.576720	82.761703	-5.337442	17.268058
0.086957	1.406588	-2.857272	97.904778	0.169744	0.882546	0.575095	-4.346527	-5.625678	-3.556202	0.485243	0.008469	22.885053	4.625182	0.000000	-0.336278	1.298493	6.612715	5.470673	0.095481	25.277511	8.705748	0.000000	0.182452	-0.281218	-1.967260	0.338831	-0.374020	-2.090214	0.299750	-0.683754	-2.090214	0.208524	-0.683754	-1.721352	0.169425	-0.573460	-1.598399	0.104253	-0.435607	-1.475445	1.303236	-3.181197	-10.941309	0.000000	0.000000	24.831247	7.830802	-3.241793	19.595944	-6.153255	45.860717	36.500232	81.099259	1.580018	13.970972	14.077204	-8.444338	34.627780	49.729406	82.706991	-5.507187	17.868568
0.108696	1.113085	-2.795340	97.603241	0.170363	0.882918	0.574305	-4.511244	-5.902452	-3.562145	0.490968	0.008569	22.881895	5.016827	0.000000	-0.545951	1.607463	6.404344	5.328085	0.092993	25.216681	8.328996	0.000000	0.191698	-0.314823	-1.944556	0.356003	-0.418715	-2.066091	0.314941	-0.765461	-2.066091	0.219092	-0.765461	-1.701486	0.178011	-0.641987	-1.579952	0.109536	-0.487661	-1.458417	1.369282	-3.561341	-10.815037	0.000000	0.000000	24.776963	7.969830	-2.753555	19.608526	-5.790763	45.473017	36.216077	79.232402	0.737713	13.574007	13.891763	-8.442729	34.009320	49.792961	82.338645	-5.591168	18.213269
